<svg width="1078" height="736" viewBox="0 0 1078 736" fill="none" xmlns="http://www.w3.org/2000/svg">
<path d="M262.32 316.625L295.789 400.156L329.258 316.625H346.766V419H333.266V379.133L334.531 336.102L300.922 419H290.586L257.047 336.312L258.383 379.133V419H244.883V316.625H262.32ZM500.469 371.68H456.102V407.961H507.641V419H442.602V316.625H506.938V327.734H456.102V360.641H500.469V371.68ZM633.992 377.586H609.945V419H596.375V316.625H630.266C641.797 316.625 650.656 319.25 656.844 324.5C663.078 329.75 666.195 337.391 666.195 347.422C666.195 353.797 664.461 359.352 660.992 364.086C657.57 368.82 652.789 372.359 646.648 374.703L670.695 418.156V419H656.211L633.992 377.586ZM609.945 366.547H630.688C637.391 366.547 642.711 364.812 646.648 361.344C650.633 357.875 652.625 353.234 652.625 347.422C652.625 341.094 650.727 336.242 646.93 332.867C643.18 329.492 637.742 327.781 630.617 327.734H609.945V366.547ZM835.859 419H822.289L770.75 340.109V419H757.18V316.625H770.75L822.43 395.867V316.625H835.859V419Z" fill="black"/>
<path d="M519.654 231.184H511.428V254H508.07V231.184H499.861V228.406H519.654V231.184ZM561.121 254H557.729V242.17H544.826V254H541.451V228.406H544.826V239.41H557.729V228.406H561.121V254ZM599.582 242.17H588.49V251.24H601.375V254H585.115V228.406H601.199V231.184H588.49V239.41H599.582V242.17Z" fill="black"/>
<path d="M470.512 517.592C467.617 516.76 465.508 515.74 464.184 514.533C462.871 513.314 462.215 511.814 462.215 510.033C462.215 508.018 463.018 506.354 464.623 505.041C466.24 503.717 468.338 503.055 470.916 503.055C472.674 503.055 474.238 503.395 475.609 504.074C476.992 504.754 478.059 505.691 478.809 506.887C479.57 508.082 479.951 509.389 479.951 510.807H476.559C476.559 509.26 476.066 508.047 475.082 507.168C474.098 506.277 472.709 505.832 470.916 505.832C469.252 505.832 467.951 506.201 467.014 506.939C466.088 507.666 465.625 508.68 465.625 509.98C465.625 511.023 466.064 511.908 466.943 512.635C467.834 513.35 469.34 514.006 471.461 514.604C473.594 515.201 475.258 515.863 476.453 516.59C477.66 517.305 478.551 518.143 479.125 519.104C479.711 520.064 480.004 521.195 480.004 522.496C480.004 524.57 479.195 526.234 477.578 527.488C475.961 528.73 473.799 529.352 471.092 529.352C469.334 529.352 467.693 529.018 466.17 528.35C464.646 527.67 463.469 526.744 462.637 525.572C461.816 524.4 461.406 523.07 461.406 521.582H464.799C464.799 523.129 465.367 524.354 466.504 525.256C467.652 526.146 469.182 526.592 471.092 526.592C472.873 526.592 474.238 526.229 475.188 525.502C476.137 524.775 476.611 523.785 476.611 522.531C476.611 521.277 476.172 520.311 475.293 519.631C474.414 518.939 472.82 518.26 470.512 517.592ZM520.029 506.184H511.803V529H508.445V506.184H500.236V503.406H520.029V506.184ZM554.553 522.32H543.83L541.422 529H537.941L547.715 503.406H550.668L560.459 529H556.996L554.553 522.32ZM544.85 519.543H553.551L549.191 507.572L544.85 519.543ZM600.52 520.879C600.203 523.586 599.201 525.678 597.514 527.154C595.838 528.619 593.605 529.352 590.816 529.352C587.793 529.352 585.367 528.268 583.539 526.1C581.723 523.932 580.814 521.031 580.814 517.398V514.938C580.814 512.559 581.236 510.467 582.08 508.662C582.936 506.857 584.143 505.475 585.701 504.514C587.26 503.541 589.064 503.055 591.115 503.055C593.834 503.055 596.014 503.816 597.654 505.34C599.295 506.852 600.25 508.949 600.52 511.633H597.127C596.834 509.594 596.195 508.117 595.211 507.203C594.238 506.289 592.873 505.832 591.115 505.832C588.959 505.832 587.266 506.629 586.035 508.223C584.816 509.816 584.207 512.084 584.207 515.025V517.504C584.207 520.281 584.787 522.49 585.947 524.131C587.107 525.771 588.73 526.592 590.816 526.592C592.691 526.592 594.127 526.17 595.123 525.326C596.131 524.471 596.799 522.988 597.127 520.879H600.52ZM629.646 517.1L626.518 520.352V529H623.143V503.406H626.518V516.062L637.891 503.406H641.969L631.896 514.709L642.76 529H638.717L629.646 517.1Z" fill="black"/>
<path d="M729 632.982C736.639 632.982 742.869 639.213 742.869 647C742.869 654.417 736.639 660.721 729 660.721C721.361 660.721 715.131 654.417 715.131 647C715.131 639.213 721.361 632.982 729 632.982ZM694.661 706.333C699.333 709.152 709.568 704.85 721.361 693.725C717.504 689.349 713.722 684.603 710.162 679.633C704.185 679.061 698.243 678.17 692.362 676.963C688.579 692.835 689.988 703.738 694.661 706.333ZM699.927 663.762L697.776 659.979C696.96 662.13 696.144 664.281 695.625 666.357C697.628 666.802 699.853 667.173 702.152 667.544L699.927 663.762ZM748.432 658.125L754.439 647L748.432 635.875C746.207 631.944 743.833 628.458 741.683 624.972C737.678 624.75 733.45 624.75 729 624.75C724.55 624.75 720.323 624.75 716.318 624.972C714.167 628.458 711.793 631.944 709.568 635.875L703.561 647L709.568 658.125C711.793 662.056 714.167 665.542 716.318 669.028C720.323 669.25 724.55 669.25 729 669.25C733.45 669.25 737.678 669.25 741.683 669.028C743.833 665.542 746.207 662.056 748.432 658.125ZM729 608.285C727.591 609.917 726.108 611.623 724.624 613.625H733.376C731.893 611.623 730.409 609.917 729 608.285ZM729 685.715C730.409 684.083 731.893 682.378 733.376 680.375H724.624C726.108 682.378 727.591 684.083 729 685.715ZM763.265 587.667C758.667 584.848 748.432 589.15 736.639 600.275C740.496 604.651 744.278 609.398 747.838 614.367C753.92 614.96 759.928 615.85 765.638 617.037C769.421 601.165 768.012 590.263 763.265 587.667ZM758.073 630.238L760.224 634.021C761.04 631.87 761.856 629.719 762.375 627.643C760.373 627.198 758.148 626.827 755.848 626.456L758.073 630.238ZM768.828 577.951C779.73 584.181 780.917 600.572 776.318 619.707C795.157 625.269 808.729 634.466 808.729 647C808.729 659.534 795.157 668.731 776.318 674.293C780.917 693.428 779.73 709.819 768.828 716.049C757.999 722.279 743.24 715.159 729 701.587C714.76 715.159 700.001 722.279 689.098 716.049C678.27 709.819 677.083 693.428 681.682 674.293C662.843 668.731 649.271 659.534 649.271 647C649.271 634.466 662.843 625.269 681.682 619.707C677.083 600.572 678.27 584.181 689.098 577.951C700.001 571.721 714.76 578.841 729 592.413C743.24 578.841 757.999 571.721 768.828 577.951ZM766.677 647C769.198 652.562 771.423 658.125 773.278 663.762C788.853 659.089 797.604 652.414 797.604 647C797.604 641.586 788.853 634.911 773.278 630.238C771.423 635.875 769.198 641.438 766.677 647ZM691.323 647C688.802 641.438 686.577 635.875 684.723 630.238C669.148 634.911 660.396 641.586 660.396 647C660.396 652.414 669.148 659.089 684.723 663.762C686.577 658.125 688.802 652.562 691.323 647ZM758.073 663.762L755.848 667.544C758.148 667.173 760.373 666.802 762.375 666.357C761.856 664.281 761.04 662.13 760.224 659.979L758.073 663.762ZM736.639 693.725C748.432 704.85 758.667 709.152 763.265 706.333C768.012 703.738 769.421 692.835 765.638 676.963C759.928 678.15 753.92 679.04 747.838 679.633C744.278 684.603 740.496 689.349 736.639 693.725ZM699.927 630.238L702.152 626.456C699.853 626.827 697.628 627.198 695.625 627.643C696.144 629.719 696.96 631.87 697.776 634.021L699.927 630.238ZM721.361 600.275C709.568 589.15 699.333 584.848 694.661 587.667C689.988 590.263 688.579 601.165 692.362 617.037C698.243 615.83 704.185 614.939 710.162 614.367C713.722 609.398 717.504 604.651 721.361 600.275Z" fill="#00BCD4"/>
<path d="M479.25 22.25H612.75V155.75H479.25V22.25ZM514.331 133.797C517.298 140.101 523.157 145.292 533.169 145.292C544.294 145.292 551.933 139.359 551.933 126.38V83.5117H539.325V126.083C539.325 132.462 536.729 134.093 532.65 134.093C528.348 134.093 526.568 131.127 524.566 127.641L514.331 133.797ZM558.682 132.462C562.391 139.73 569.882 145.292 581.6 145.292C593.467 145.292 602.367 139.137 602.367 127.789C602.367 117.332 596.359 112.659 585.679 108.061L582.564 106.726C577.15 104.427 574.851 102.869 574.851 99.1608C574.851 96.12 577.15 93.7467 580.858 93.7467C584.418 93.7467 586.792 95.3042 588.943 99.1608L598.658 92.7083C594.579 85.5883 588.794 82.8442 580.858 82.8442C569.659 82.8442 562.465 89.9642 562.465 99.3833C562.465 109.618 568.472 114.439 577.521 118.296L580.636 119.631C586.421 122.152 589.832 123.71 589.832 128.012C589.832 131.572 586.495 134.167 581.303 134.167C575.147 134.167 571.588 130.978 568.917 126.528L558.682 132.462Z" fill="#FFCA28"/>
<path d="M244 207.847L273.168 199.748L277.11 156.032H225.223L223.933 141.483H278.4L279.833 127.222H208.167L212.18 170.293H261.558L259.91 188.783L244 193.083L228.09 188.783L227.087 176.887H212.753L214.832 199.748L244 207.847ZM187.168 103.5H300.832L290.583 219.6L244 232.5L197.417 219.6L187.168 103.5Z" fill="#E44D26"/>
<path d="M434 689.393C426.47 691.307 421.813 689.477 417.634 683.202L387.917 642.087L383.621 636.394L348.917 683.338C344.951 688.985 340.792 691.443 333.392 689.444L377.832 629.79L336.458 575.905C343.573 574.521 348.49 575.226 352.856 581.597L383.68 623.224L414.73 581.824C418.708 576.177 422.984 574.029 430.125 576.112L414.083 597.381L392.348 625.682C389.76 628.916 390.116 631.129 392.496 634.253L434 689.393ZM227.052 628.793L230.687 610.914C240.584 575.53 281.143 560.826 309.114 582.691C325.461 595.551 329.523 613.741 328.715 634.117H236.574C235.189 670.795 261.588 692.931 295.245 681.637C307.051 677.671 314.005 668.427 317.485 656.861C319.251 651.065 322.175 650.16 327.621 651.816C324.84 666.28 318.565 678.363 305.304 685.925C285.49 697.246 257.209 693.584 242.331 677.852C233.469 668.725 229.807 657.159 228.164 644.791C227.906 642.747 227.388 640.799 227 638.839C227.034 635.493 227.052 632.146 227.052 628.8V628.793ZM236.742 626.335H320.008C319.464 599.813 302.95 580.976 280.38 580.815C255.605 580.621 237.816 599.011 236.742 626.335Z" fill="black"/>
<path d="M796.375 116.625L791.906 139.588H885.338L882.313 154.438H788.95L784.413 177.331H877.844L872.619 203.525L834.944 215.969L802.288 203.525L804.556 192.25H781.594L776.163 219.75L830.131 240.375L892.35 219.75L900.6 178.294L902.25 169.975L912.838 116.625H796.375Z" fill="#42A5F5"/>
<g clip-path="url(#clip0_9_39)">
<path d="M89.9344 348.492L94.7648 357.565C95.8508 359.239 97.0273 360.721 98.4131 362.101C102.457 366.145 106.298 370.382 109.748 374.918C117.933 385.665 123.453 397.6 127.396 410.507C129.76 418.392 131.044 426.48 131.14 434.659C131.536 459.111 123.154 480.107 106.253 497.557C103.492 500.317 100.54 502.874 97.3723 505.148C95.6981 505.148 94.9062 503.864 94.2161 502.681C92.9322 500.515 92.146 498.043 91.75 495.583C91.1561 492.625 90.7658 489.666 90.9581 486.612V485.232C90.8224 484.938 89.3461 349.188 89.9344 348.492Z" fill="#599636"/>
<path d="M89.9344 348.192C89.7364 347.796 89.5384 348.096 89.3405 348.288C89.4366 350.268 88.7465 352.033 87.6662 353.718C86.4784 355.393 84.906 356.677 83.3279 358.057C74.5607 365.647 67.66 374.816 62.1339 385.071C54.7808 398.872 50.9911 413.663 49.9164 429.235C49.4243 434.852 51.6925 454.671 53.4629 460.39C58.2933 475.571 66.97 488.292 78.209 499.333C80.9692 501.991 83.9218 504.458 86.9761 506.827C87.8642 506.827 87.9603 506.036 88.164 505.447C88.5533 504.189 88.8501 502.903 89.052 501.601L91.0317 486.816L89.9344 348.192Z" fill="#6CAC48"/>
<path d="M94.7648 511.155C94.9628 508.892 96.0488 507.014 97.2309 505.142C96.0431 504.65 95.1608 503.671 94.4707 502.58C93.8768 501.595 93.3847 500.413 93.0001 499.327C91.6199 495.187 91.3258 490.843 90.9299 486.612V484.05C90.4378 484.446 90.336 487.794 90.336 488.292C90.0482 492.764 89.4547 497.21 88.5599 501.601C88.2658 503.377 88.0678 505.148 86.9762 506.726C86.9762 506.924 86.9762 507.122 87.0723 507.416C88.8484 512.642 89.3348 517.965 89.6346 523.389V525.369C89.6346 527.733 89.5384 527.235 91.5012 528.027C92.293 528.321 93.1754 528.423 93.9673 529.011C94.5612 529.011 94.6574 528.519 94.6574 528.123L94.3632 524.871V515.798C94.2671 514.215 94.5612 512.642 94.7592 511.16L94.7648 511.155Z" fill="#C2BFBF"/>
</g>
<path d="M976 369.725C973.705 369.725 971.325 370.32 969.37 371.425L906.13 407.975C902.05 410.355 899.5 414.775 899.5 419.535V492.465C899.5 497.225 902.05 501.645 906.13 504.025L922.705 513.545C930.78 517.455 933.5 517.54 937.24 517.54C949.14 517.54 956.025 510.315 956.025 497.735V425.74C956.025 424.72 955.175 423.87 954.155 423.87H946.25C945.145 423.87 944.295 424.72 944.295 425.74V497.735C944.295 503.345 938.515 508.87 929.25 504.195L911.825 494.25C911.539 494.048 911.305 493.781 911.142 493.47C910.98 493.16 910.893 492.815 910.89 492.465V419.535C910.89 418.77 911.23 418.09 911.825 417.75L975.065 381.285C975.575 380.945 976.425 380.945 976.935 381.285L1040.17 417.75C1040.77 418.09 1041.11 418.77 1041.11 419.535V492.465C1041.11 493.145 1040.77 493.825 1040.17 494.25L976.935 530.715C976.425 531.055 975.575 531.055 974.98 530.715L959 521.025C958.32 520.77 957.64 520.685 957.215 520.94C952.71 523.49 951.86 524 947.695 525.275C946.675 525.615 945.06 526.21 948.29 527.995L969.37 540.49C971.41 541.68 973.62 542.275 976 542.275C978.38 542.275 980.59 541.68 982.63 540.49L1045.87 504.025C1049.95 501.645 1052.5 497.225 1052.5 492.465V419.535C1052.5 414.775 1049.95 410.355 1045.87 407.975L982.63 371.425C980.675 370.32 978.38 369.725 976 369.725ZM993 422C974.98 422 964.185 429.565 964.185 442.315C964.185 456 974.895 459.995 992.235 461.695C1012.89 463.735 1014.51 466.795 1014.51 470.875C1014.51 477.93 1008.81 480.905 995.55 480.905C978.72 480.905 975.15 476.74 973.875 468.41C973.785 467.979 973.551 467.593 973.211 467.314C972.87 467.036 972.445 466.882 972.005 466.88H963.845C962.825 466.88 962.06 467.645 962.06 468.75C962.06 479.29 967.84 492.04 995.55 492.04C1015.53 492.04 1027 484.135 1027 470.365C1027 456.68 1017.82 453.11 998.355 450.475C978.72 447.925 976.765 446.565 976.765 441.975C976.765 438.15 978.465 433.05 993 433.05C1005.75 433.05 1010.76 435.855 1012.72 444.61C1012.89 445.46 1013.66 446.055 1014.51 446.055H1022.75C1023.18 446.055 1023.68 445.885 1024.02 445.46C1024.36 445.12 1024.62 444.61 1024.45 444.1C1023.26 428.97 1013.23 422 993 422Z" fill="#8BC34A"/>
<defs>
<clipPath id="clip0_9_39">
<rect width="181" height="181" fill="white" transform="translate(0 348)"/>
</clipPath>
</defs>
</svg>
