<svg width="716" height="676" viewBox="0 0 716 676" fill="none" xmlns="http://www.w3.org/2000/svg">
<path d="M549.5 368.669C545.754 368.669 541.869 369.64 538.678 371.444L435.447 431.106C428.787 434.991 424.625 442.206 424.625 449.976V569.024C424.625 576.794 428.787 584.009 435.447 587.894L462.504 603.434C475.685 609.816 480.125 609.955 486.23 609.955C505.655 609.955 516.894 598.161 516.894 577.626V460.105C516.894 458.44 515.506 457.052 513.841 457.052H500.938C499.134 457.052 497.746 458.44 497.746 460.105V577.626C497.746 586.784 488.311 595.802 473.188 588.171L444.744 571.937C444.277 571.608 443.895 571.171 443.629 570.665C443.364 570.158 443.223 569.596 443.218 569.024V449.976C443.218 448.727 443.772 447.617 444.744 447.062L547.974 387.539C548.806 386.984 550.194 386.984 551.026 387.539L654.256 447.062C655.227 447.617 655.782 448.727 655.782 449.976V569.024C655.782 570.134 655.227 571.244 654.256 571.937L551.026 631.461C550.194 632.016 548.806 632.016 547.835 631.461L521.75 615.644C520.64 615.227 519.53 615.089 518.836 615.505C511.482 619.667 510.095 620.5 503.296 622.581C501.631 623.136 498.995 624.107 504.267 627.021L538.678 647.417C542.008 649.36 545.615 650.331 549.5 650.331C553.385 650.331 556.992 649.36 560.322 647.417L663.552 587.894C670.212 584.009 674.375 576.794 674.375 569.024V449.976C674.375 442.206 670.212 434.991 663.552 431.106L560.322 371.444C557.131 369.64 553.385 368.669 549.5 368.669V368.669ZM577.25 454C547.835 454 530.214 466.349 530.214 487.161C530.214 509.5 547.696 516.021 576.001 518.796C609.717 522.126 612.354 527.121 612.354 533.781C612.354 545.297 603.058 550.154 581.413 550.154C553.94 550.154 548.113 543.355 546.031 529.757C545.885 529.055 545.502 528.423 544.947 527.969C544.391 527.514 543.697 527.264 542.979 527.26H529.659C527.994 527.26 526.745 528.509 526.745 530.312C526.745 547.517 536.18 568.33 581.413 568.33C614.019 568.33 632.75 555.426 632.75 532.949C632.75 510.61 617.765 504.782 585.991 500.481C553.94 496.319 550.749 494.099 550.749 486.606C550.749 480.362 553.524 472.037 577.25 472.037C598.062 472.037 606.249 476.616 609.44 490.907C609.717 492.295 610.966 493.266 612.354 493.266H625.812C626.506 493.266 627.339 492.989 627.894 492.295C628.449 491.74 628.865 490.907 628.588 490.075C626.645 465.377 610.273 454 577.25 454Z" fill="#8BC34A"/>
<path d="M716 259.023C703.887 262.103 696.395 259.158 689.672 249.064L641.866 182.922L634.956 173.765L579.127 249.283C572.748 258.367 566.056 262.322 554.152 259.106L625.643 163.14L559.084 76.4557C570.531 74.2288 578.44 75.3631 585.464 85.6132L635.05 152.577L685 85.9774C691.4 76.8928 698.278 73.4379 709.767 76.7887L683.959 111.004L648.994 156.532C644.832 161.735 645.404 165.294 649.233 170.32L716 259.023ZM383.083 161.537L388.932 132.774C404.853 75.8522 470.1 52.1988 515.097 87.3719C541.394 108.06 547.929 137.322 546.628 170.102H398.401C396.174 229.105 438.642 264.715 492.786 246.546C511.777 240.167 522.964 225.296 528.563 206.69C531.404 197.366 536.107 195.909 544.869 198.573C540.395 221.841 530.3 241.28 508.968 253.445C477.093 271.656 431.597 265.766 407.663 240.458C393.406 225.775 387.516 207.169 384.873 187.272C384.457 183.984 383.624 180.851 383 177.698C383.055 172.315 383.083 166.931 383.083 161.548V161.537ZM398.672 157.583H532.621C531.747 114.917 505.18 84.6142 468.872 84.3541C429.016 84.0419 400.399 113.627 398.672 157.583V157.583Z" fill="black"/>
<path d="M178.5 482.276C192.791 482.276 204.446 493.931 204.446 508.5C204.446 522.375 192.791 534.169 178.5 534.169C164.209 534.169 152.554 522.375 152.554 508.5C152.554 493.931 164.209 482.276 178.5 482.276ZM114.259 619.5C123 624.773 142.148 616.725 164.209 595.913C156.994 587.726 149.918 578.846 143.258 569.55C132.076 568.48 120.96 566.813 109.958 564.555C102.881 594.248 105.518 614.644 114.259 619.5V619.5ZM124.11 539.858L120.086 532.781C118.56 536.805 117.034 540.829 116.063 544.714C119.809 545.546 123.971 546.24 128.273 546.934L124.11 539.858ZM214.853 529.313L226.091 508.5L214.853 487.688C210.69 480.334 206.25 473.813 202.226 467.291C194.734 466.875 186.825 466.875 178.5 466.875C170.175 466.875 162.266 466.875 154.774 467.291C150.75 473.813 146.31 480.334 142.148 487.688L130.909 508.5L142.148 529.313C146.31 536.666 150.75 543.188 154.774 549.709C162.266 550.125 170.175 550.125 178.5 550.125C186.825 550.125 194.734 550.125 202.226 549.709C206.25 543.188 210.69 536.666 214.853 529.313V529.313ZM178.5 436.073C175.864 439.125 173.089 442.316 170.314 446.063H186.686C183.911 442.316 181.136 439.125 178.5 436.073ZM178.5 580.928C181.136 577.875 183.911 574.684 186.686 570.938H170.314C173.089 574.684 175.864 577.875 178.5 580.928ZM242.603 397.5C234 392.227 214.853 400.275 192.791 421.088C200.006 429.274 207.083 438.154 213.743 447.45C225.12 448.56 236.359 450.225 247.043 452.445C254.119 422.753 251.483 402.356 242.603 397.5ZM232.89 477.143L236.914 484.219C238.44 480.195 239.966 476.171 240.938 472.286C237.191 471.454 233.029 470.76 228.728 470.066L232.89 477.143V477.143ZM253.009 379.324C273.405 390.979 275.625 421.643 267.023 457.44C302.265 467.846 327.656 485.051 327.656 508.5C327.656 531.949 302.265 549.154 267.023 559.56C275.625 595.358 273.405 626.021 253.009 637.676C232.751 649.331 205.14 636.011 178.5 610.62C151.86 636.011 124.249 649.331 103.853 637.676C83.595 626.021 81.375 595.358 89.9775 559.56C54.735 549.154 29.3438 531.949 29.3438 508.5C29.3438 485.051 54.735 467.846 89.9775 457.44C81.375 421.643 83.595 390.979 103.853 379.324C124.249 367.669 151.86 380.989 178.5 406.38C205.14 380.989 232.751 367.669 253.009 379.324ZM248.985 508.5C253.703 518.906 257.865 529.313 261.334 539.858C290.471 531.116 306.844 518.629 306.844 508.5C306.844 498.371 290.471 485.884 261.334 477.143C257.865 487.688 253.703 498.094 248.985 508.5ZM108.015 508.5C103.298 498.094 99.135 487.688 95.6663 477.143C66.5288 485.884 50.1563 498.371 50.1563 508.5C50.1563 518.629 66.5288 531.116 95.6663 539.858C99.135 529.313 103.298 518.906 108.015 508.5ZM232.89 539.858L228.728 546.934C233.029 546.24 237.191 545.546 240.938 544.714C239.966 540.829 238.44 536.805 236.914 532.781L232.89 539.858V539.858ZM192.791 595.913C214.853 616.725 234 624.773 242.603 619.5C251.483 614.644 254.119 594.248 247.043 564.555C236.359 566.775 225.12 568.44 213.743 569.55C207.083 578.846 200.006 587.726 192.791 595.913V595.913ZM124.11 477.143L128.273 470.066C123.971 470.76 119.809 471.454 116.063 472.286C117.034 476.171 118.56 480.195 120.086 484.219L124.11 477.143ZM164.209 421.088C142.148 400.275 123 392.227 114.259 397.5C105.518 402.356 102.881 422.753 109.958 452.445C120.96 450.187 132.076 448.52 143.258 447.45C149.918 438.154 156.994 429.274 164.209 421.088V421.088Z" fill="#00BCD4"/>
<g clip-path="url(#clip0_102_15)">
<path d="M165.459 0.905334L174.346 17.597C176.344 20.6772 178.509 23.4036 181.058 25.9428C188.499 33.3832 195.565 41.1775 201.912 49.5233C216.97 69.2952 227.127 91.2524 234.38 114.999C238.73 129.506 241.092 144.387 241.269 159.434C241.997 204.42 226.575 243.048 195.481 275.152C190.403 280.23 184.971 284.934 179.144 289.117C176.063 289.117 174.606 286.755 173.337 284.58C170.975 280.594 169.528 276.047 168.8 271.52C167.707 266.077 166.989 260.635 167.343 255.016V252.476C167.093 251.935 164.377 2.1853 165.459 0.905334Z" fill="#599636"/>
<path d="M165.459 0.353825C165.095 -0.374612 164.731 0.176919 164.367 0.530732C164.544 4.17292 163.274 7.41967 161.286 10.5207C159.101 13.601 156.208 15.9632 153.305 18.5023C137.175 32.4675 124.48 49.336 114.313 68.2026C100.785 93.5938 93.8123 120.806 91.8351 149.455C90.9298 159.788 95.1027 196.251 98.3599 206.772C107.247 234.703 123.21 258.106 143.887 278.419C148.965 283.31 154.398 287.847 160.017 292.207C161.651 292.207 161.828 290.751 162.202 289.668C162.918 287.353 163.465 284.988 163.836 282.592L167.478 255.39L165.459 0.353825Z" fill="#6CAC48"/>
<path d="M174.346 300.168C174.71 296.006 176.708 292.551 178.883 289.106C176.698 288.201 175.075 286.401 173.805 284.392C172.712 282.582 171.807 280.407 171.099 278.409C168.56 270.791 168.019 262.799 167.291 255.016V250.302C166.385 251.03 166.198 257.19 166.198 258.106C165.669 266.333 164.577 274.514 162.931 282.592C162.389 285.86 162.025 289.117 160.017 292.02C160.017 292.384 160.017 292.749 160.194 293.29C163.461 302.905 164.356 312.697 164.908 322.677V326.319C164.908 330.669 164.731 329.753 168.342 331.21C169.799 331.751 171.422 331.939 172.879 333.021C173.972 333.021 174.149 332.115 174.149 331.387L173.607 325.403V308.712C173.431 305.798 173.972 302.905 174.336 300.179L174.346 300.168Z" fill="#C2BFBF"/>
</g>
<defs>
<clipPath id="clip0_102_15">
<rect width="333" height="333" fill="white"/>
</clipPath>
</defs>
</svg>
