<svg width="496" height="496" viewBox="0 0 496 496" fill="none" xmlns="http://www.w3.org/2000/svg">
<path d="M248 38.2333C242.42 38.2333 236.633 39.68 231.88 42.3667L78.12 131.233C68.2 137.02 62 147.767 62 159.34V336.66C62 348.233 68.2 358.98 78.12 364.767L118.42 387.913C138.053 397.42 144.667 397.627 153.76 397.627C182.693 397.627 199.433 380.06 199.433 349.473V174.427C199.433 171.947 197.367 169.88 194.887 169.88H175.667C172.98 169.88 170.913 171.947 170.913 174.427V349.473C170.913 363.113 156.86 376.547 134.333 365.18L91.9667 341C91.2708 340.509 90.7018 339.859 90.3066 339.104C89.9113 338.35 89.7011 337.512 89.6933 336.66V159.34C89.6933 157.48 90.52 155.827 91.9667 155L245.727 66.34C246.967 65.5133 249.033 65.5133 250.273 66.34L404.033 155C405.48 155.827 406.307 157.48 406.307 159.34V336.66C406.307 338.313 405.48 339.967 404.033 341L250.273 429.66C249.033 430.487 246.967 430.487 245.52 429.66L206.667 406.1C205.013 405.48 203.36 405.273 202.327 405.893C191.373 412.093 189.307 413.333 179.18 416.433C176.7 417.26 172.773 418.707 180.627 423.047L231.88 453.427C236.84 456.32 242.213 457.767 248 457.767C253.787 457.767 259.16 456.32 264.12 453.427L417.88 364.767C427.8 358.98 434 348.233 434 336.66V159.34C434 147.767 427.8 137.02 417.88 131.233L264.12 42.3667C259.367 39.68 253.787 38.2333 248 38.2333ZM289.333 165.333C245.52 165.333 219.273 183.727 219.273 214.727C219.273 248 245.313 257.713 287.473 261.847C337.693 266.807 341.62 274.247 341.62 284.167C341.62 301.32 327.773 308.553 295.533 308.553C254.613 308.553 245.933 298.427 242.833 278.173C242.616 277.127 242.046 276.186 241.218 275.509C240.391 274.832 239.356 274.459 238.287 274.453H218.447C215.967 274.453 214.107 276.313 214.107 279C214.107 304.627 228.16 335.627 295.533 335.627C344.1 335.627 372 316.407 372 282.927C372 249.653 349.68 240.973 302.353 234.567C254.613 228.367 249.86 225.06 249.86 213.9C249.86 204.6 253.993 192.2 289.333 192.2C320.333 192.2 332.527 199.02 337.28 220.307C337.693 222.373 339.553 223.82 341.62 223.82H361.667C362.7 223.82 363.94 223.407 364.767 222.373C365.593 221.547 366.213 220.307 365.8 219.067C362.907 182.28 338.52 165.333 289.333 165.333Z" fill="#8BC34A"/>
</svg>
