<svg width="394" height="394" viewBox="0 0 394 394" fill="none" xmlns="http://www.w3.org/2000/svg">
<path d="M197 165.972C213.909 165.972 227.699 179.762 227.699 197C227.699 213.417 213.909 227.371 197 227.371C180.091 227.371 166.301 213.417 166.301 197C166.301 179.762 180.091 165.972 197 165.972ZM120.991 328.333C131.333 334.572 153.988 325.05 180.091 300.425C171.554 290.739 163.182 280.232 155.302 269.233C142.072 267.967 128.92 265.994 115.902 263.323C107.529 298.455 110.648 322.587 120.991 328.333V328.333ZM132.647 234.102L127.886 225.729C126.08 230.49 124.274 235.251 123.125 239.847C127.557 240.832 132.482 241.653 137.572 242.474L132.647 234.102ZM240.012 221.625L253.309 197L240.012 172.375C235.087 163.674 229.833 155.958 225.072 148.242C216.207 147.75 206.85 147.75 197 147.75C187.15 147.75 177.792 147.75 168.927 148.242C164.167 155.958 158.913 163.674 153.988 172.375L140.691 197L153.988 221.625C158.913 230.326 164.167 238.042 168.927 245.757C177.792 246.25 187.15 246.25 197 246.25C206.85 246.25 216.207 246.25 225.072 245.757C229.833 238.042 235.087 230.326 240.012 221.625V221.625ZM197 111.305C193.881 114.917 190.597 118.692 187.314 123.125H206.686C203.402 118.692 200.119 114.917 197 111.305ZM197 282.695C200.119 279.083 203.402 275.307 206.686 270.875H187.314C190.597 275.307 193.881 279.083 197 282.695ZM272.845 65.6667C262.667 59.4283 240.012 68.95 213.909 93.575C222.446 103.261 230.818 113.767 238.698 124.767C252.16 126.08 265.458 128.05 278.098 130.677C286.471 95.545 283.352 71.4125 272.845 65.6667ZM261.353 159.898L266.114 168.271C267.92 163.51 269.726 158.749 270.875 154.152C266.442 153.167 261.517 152.347 256.428 151.526L261.353 159.898V159.898ZM285.158 44.1608C309.29 57.9508 311.917 94.2316 301.738 136.587C343.437 148.899 373.479 169.256 373.479 197C373.479 224.744 343.437 245.101 301.738 257.413C311.917 299.768 309.29 336.049 285.158 349.839C261.189 363.629 228.52 347.869 197 317.827C165.48 347.869 132.811 363.629 108.678 349.839C84.71 336.049 82.0833 299.768 92.2616 257.413C50.5633 245.101 20.5208 224.744 20.5208 197C20.5208 169.256 50.5633 148.899 92.2616 136.587C82.0833 94.2316 84.71 57.9508 108.678 44.1608C132.811 30.3708 165.48 46.1308 197 76.1733C228.52 46.1308 261.189 30.3708 285.158 44.1608ZM280.397 197C285.978 209.312 290.903 221.625 295.007 234.102C329.482 223.759 348.854 208.984 348.854 197C348.854 185.016 329.482 170.241 295.007 159.898C290.903 172.375 285.978 184.687 280.397 197ZM113.603 197C108.022 184.687 103.097 172.375 98.9925 159.898C64.5175 170.241 45.1458 185.016 45.1458 197C45.1458 208.984 64.5175 223.759 98.9925 234.102C103.097 221.625 108.022 209.312 113.603 197ZM261.353 234.102L256.428 242.474C261.517 241.653 266.442 240.832 270.875 239.847C269.726 235.251 267.92 230.49 266.114 225.729L261.353 234.102V234.102ZM213.909 300.425C240.012 325.05 262.667 334.572 272.845 328.333C283.352 322.587 286.471 298.455 278.098 263.323C265.458 265.95 252.16 267.92 238.698 269.233C230.818 280.232 222.446 290.739 213.909 300.425V300.425ZM132.647 159.898L137.572 151.526C132.482 152.347 127.557 153.167 123.125 154.152C124.274 158.749 126.08 163.51 127.886 168.271L132.647 159.898ZM180.091 93.575C153.988 68.95 131.333 59.4283 120.991 65.6667C110.648 71.4125 107.529 95.545 115.902 130.677C128.92 128.006 142.072 126.033 155.302 124.767C163.182 113.767 171.554 103.261 180.091 93.575V93.575Z" fill="#00BCD4"/>
</svg>
